<?xml version="1.0" encoding="utf-8"?>
<!-- Generator: Adobe Illustrator 14.0.0, SVG Export Plug-In . SVG Version: 6.00 Build 43363)  -->
<!DOCTYPE svg PUBLIC "-//W3C//DTD SVG 1.1//EN" "http://www.w3.org/Graphics/SVG/1.1/DTD/svg11.dtd">
<svg version="1.1" id="Layer_1" xmlns="http://www.w3.org/2000/svg" xmlns:xlink="http://www.w3.org/1999/xlink" x="0px" y="0px"
	 width="95.874px" height="63.229px" viewBox="0 0 95.874 63.229" enable-background="new 0 0 95.874 63.229" xml:space="preserve">
<g>
	<g>
		<path fill="#5700C9" d="M68.114,2.665C66.405,0.946,64.134,0,61.716,0s-4.69,0.946-6.4,2.665l-6.352,6.387l2.742,2.757
			l6.353-6.388c0.977-0.981,2.276-1.522,3.657-1.522s2.68,0.541,3.656,1.522c2.017,2.027,2.016,5.325-0.001,7.353l-7.325,7.366
			c0.489,1.791,0.498,3.685,0.033,5.481l10.035-10.09c1.709-1.718,2.651-4.003,2.651-6.434C70.766,6.669,69.823,4.383,68.114,2.665z
			"/>
		<path fill="#5700C9" d="M42.997,24.48c-0.15-0.489-0.229-1.005-0.229-1.532c0-1.389,0.539-2.693,1.516-3.676l2.622-2.637
			l-2.743-2.758l-1.83,1.84c-0.234,0.293-0.482,0.578-0.751,0.85c-0.159,0.158-0.328,0.302-0.495,0.451
			c-1.417,1.65-2.197,3.727-2.197,5.93c0,1.283,0.27,2.522,0.769,3.662c0.503-1.253,1.723-2.141,3.146-2.141
			C42.87,24.469,42.933,24.477,42.997,24.48z"/>
		<path fill="#5700C9" d="M40.554,2.666C38.845,0.946,36.571,0,34.153,0c-2.416,0-4.688,0.946-6.398,2.665
			c-3.528,3.548-3.528,9.319,0,12.868c1.71,1.718,3.982,2.665,6.399,2.665s4.69-0.947,6.399-2.665
			c1.326-1.334,2.189-3.01,2.511-4.829l8.521,8.568c2.017,2.027,2.017,5.325,0,7.352c-0.977,0.982-2.274,1.522-3.655,1.522
			c-1.379,0-2.674-0.538-3.649-1.517c-0.356-0.422-0.882-0.697-1.477-0.697c-1.071,0-1.939,0.873-1.939,1.951
			c0,0.594,0.248,1.141,0.665,1.498c1.71,1.719,3.982,2.665,6.398,2.665h0.002c2.416,0,4.689-0.946,6.398-2.665
			c3.529-3.547,3.529-9.32,0-12.867L40.554,2.666z M37.811,12.774c-0.977,0.982-2.274,1.523-3.656,1.523
			c-1.381,0-2.68-0.541-3.655-1.523c-2.018-2.027-2.018-5.326,0-7.353c0.976-0.982,2.273-1.522,3.654-1.522
			c1.382,0,2.68,0.541,3.657,1.522c0.978,0.983,1.515,2.288,1.515,3.676S38.788,11.792,37.811,12.774z"/>
	</g>
	<g>
		<path fill="#5700C9" d="M0,46.604c0-0.576,0.357-0.952,0.946-0.952h6.059c0.66,0,1.07,0.395,1.07,0.952
			c0,0.557-0.41,0.952-1.07,0.952H2.216c-0.072,0-0.107,0.035-0.107,0.107v2.981c0,0.071,0.035,0.107,0.107,0.107h3.896
			c0.66,0,1.071,0.396,1.071,0.953c0,0.557-0.411,0.951-1.071,0.951H2.216c-0.072,0-0.107,0.035-0.107,0.107v3.09
			c0,0.072,0.035,0.107,0.107,0.107h4.789c0.66,0,1.07,0.396,1.07,0.952c0,0.558-0.41,0.952-1.07,0.952H0.946
			C0.357,57.866,0,57.489,0,56.914V46.604z"/>
		<path fill="#5700C9" d="M10.115,53.573v-6.898c0-0.682,0.446-1.113,1.054-1.113s1.055,0.432,1.055,1.113v6.862
			c0,1.689,0.982,2.624,2.357,2.624c1.395,0,2.377-0.935,2.377-2.624v-6.862c0-0.682,0.447-1.113,1.055-1.113
			s1.054,0.432,1.054,1.113v6.898c0,2.838-1.911,4.491-4.485,4.491C12.026,58.064,10.115,56.411,10.115,53.573"/>
		<path fill="#5700C9" d="M28.359,57.292l-2.198-4.365h-2.269c-0.071,0-0.108,0.037-0.108,0.107v3.809
			c0,0.684-0.428,1.113-1.053,1.113c-0.607,0-1.055-0.43-1.055-1.113V46.604c0-0.576,0.357-0.952,0.947-0.952h3.931
			c2.233,0,3.878,1.491,3.878,3.646c0,1.544-0.858,2.729-2.163,3.288l1.983,3.717c0.107,0.197,0.161,0.432,0.161,0.646
			c0,0.558-0.394,1.006-1.019,1.006C28.949,57.956,28.591,57.758,28.359,57.292 M28.342,49.298c0-1.06-0.751-1.742-1.858-1.742
			h-2.591c-0.071,0-0.108,0.036-0.108,0.107v3.251c0,0.071,0.037,0.107,0.108,0.107h2.591
			C27.591,51.022,28.342,50.339,28.342,49.298"/>
		<path fill="#5700C9" d="M32.721,48.381c0.626-1.922,2.162-2.928,4.253-2.928c2.107,0,3.645,1.006,4.27,2.928
			c0.286,0.881,0.357,1.6,0.357,3.378c0,1.777-0.071,2.496-0.357,3.377c-0.625,1.922-2.162,2.928-4.27,2.928
			c-2.091,0-3.627-1.006-4.253-2.928c-0.286-0.881-0.356-1.6-0.356-3.377C32.364,49.981,32.435,49.262,32.721,48.381 M39.206,48.956
			c-0.32-0.986-1.035-1.598-2.232-1.598c-1.18,0-1.895,0.611-2.216,1.598c-0.179,0.521-0.25,1.169-0.25,2.804
			c0,1.634,0.071,2.281,0.25,2.802c0.321,0.987,1.036,1.6,2.216,1.6c1.197,0,1.912-0.612,2.232-1.6
			c0.18-0.521,0.251-1.168,0.251-2.802C39.457,50.125,39.386,49.477,39.206,48.956"/>
		<path fill="#5700C9" d="M43.927,46.602c0-0.574,0.356-0.95,0.946-0.95h2.983c2.467,0,3.967,0.88,4.592,2.802
			c0.232,0.756,0.357,1.563,0.357,3.305c0,1.744-0.125,2.551-0.357,3.306c-0.625,1.923-2.125,2.802-4.592,2.802h-2.983
			c-0.59,0-0.946-0.358-0.946-0.934V46.602z M46.142,55.961h1.607c1.412,0,2.305-0.484,2.681-1.634
			c0.143-0.503,0.231-1.222,0.231-2.569s-0.089-2.065-0.231-2.568c-0.376-1.15-1.269-1.635-2.681-1.635h-1.607
			c-0.072,0-0.107,0.036-0.107,0.108v8.19C46.034,55.926,46.069,55.961,46.142,55.961"/>
		<path fill="#5700C9" d="M54.147,56.573l3.539-9.808c0.268-0.755,0.66-1.204,1.393-1.204s1.145,0.449,1.412,1.204l3.502,9.808
			c0.035,0.107,0.071,0.252,0.071,0.396c0,0.611-0.482,0.987-1.019,0.987c-0.465,0-0.84-0.27-1-0.736l-0.662-1.904h-4.645
			l-0.644,1.904c-0.161,0.467-0.536,0.736-1.001,0.736c-0.535,0-1.018-0.376-1.018-0.987C54.077,56.825,54.112,56.68,54.147,56.573
			 M60.741,53.429l-1.644-4.761h-0.054l-1.645,4.761H60.741z"/>
		<path fill="#5700C9" d="M65.925,46.836c0-0.79,0.465-1.275,1.197-1.275c0.607,0,1,0.36,1.395,1.043l4.466,7.617h0.054v-7.617
			c0-0.664,0.41-1.043,0.982-1.043c0.555,0,0.965,0.379,0.965,1.043V56.68c0,0.791-0.465,1.275-1.18,1.275
			c-0.625,0-1.018-0.359-1.411-1.042l-4.449-7.616h-0.071v7.616c0,0.666-0.411,1.042-0.965,1.042c-0.572,0-0.982-0.376-0.982-1.042
			V46.836z"/>
		<path fill="#5700C9" d="M77.308,51.759c0-1.813,0.09-2.515,0.34-3.36c0.625-1.921,2.127-2.945,4.217-2.945
			c1.697,0,3.055,0.791,3.662,1.994c0.107,0.197,0.18,0.395,0.18,0.629c0,0.557-0.429,0.951-0.965,0.951
			c-0.357,0-0.644-0.16-0.93-0.574c-0.482-0.736-1.054-1.096-1.947-1.096c-1.162,0-1.858,0.611-2.18,1.598
			c-0.16,0.521-0.232,1.061-0.232,2.804s0.072,2.281,0.232,2.802c0.321,0.987,1.018,1.6,2.18,1.6c0.894,0,1.465-0.359,1.947-1.097
			c0.286-0.413,0.572-0.575,0.93-0.575c0.536,0,0.965,0.396,0.965,0.971c0,0.215-0.072,0.412-0.18,0.611
			c-0.607,1.203-1.965,1.993-3.662,1.993c-2.09,0-3.592-1.024-4.217-2.946C77.397,54.274,77.308,53.573,77.308,51.759"/>
		<path fill="#5700C9" d="M87.798,46.604c0-0.576,0.357-0.952,0.947-0.952h6.057c0.662,0,1.072,0.395,1.072,0.952
			c0,0.557-0.41,0.952-1.072,0.952h-4.789c-0.07,0-0.105,0.035-0.105,0.107v2.981c0,0.071,0.035,0.107,0.105,0.107h3.896
			c0.66,0,1.07,0.396,1.07,0.953c0,0.557-0.41,0.951-1.07,0.951h-3.896c-0.07,0-0.105,0.035-0.105,0.107v3.09
			c0,0.072,0.035,0.107,0.105,0.107h4.789c0.662,0,1.072,0.396,1.072,0.952c0,0.558-0.41,0.952-1.072,0.952h-6.057
			c-0.59,0-0.947-0.377-0.947-0.952V46.604z"/>
		<rect y="61.28" fill="#5700C9" width="95.874" height="1.949"/>
	</g>
</g>
</svg>
